<svg width="24" height="20" viewBox="0 0 24 20" fill="none" xmlns="http://www.w3.org/2000/svg">
<path d="M12 19C11.6868 19 11.3848 18.8957 11.1495 18.7061C10.2608 17.9914 9.40392 17.3198 8.64793 16.7274L8.64407 16.7243C6.42766 14.9873 4.5137 13.4873 3.18201 12.0096C1.69337 10.3576 1 8.79138 1 7.08032C1 5.41788 1.61986 3.88418 2.74527 2.76153C3.88411 1.62561 5.44676 1 7.14587 1C8.4158 1 9.57881 1.36922 10.6025 2.09733C11.1191 2.46486 11.5874 2.91466 12 3.43932C12.4127 2.91466 12.8809 2.46486 13.3977 2.09733C14.4214 1.36922 15.5844 1 16.8543 1C18.5532 1 20.1161 1.62561 21.2549 2.76153C22.3803 3.88418 23 5.41788 23 7.08032C23 8.79138 22.3068 10.3576 20.8182 12.0094C19.4865 13.4873 17.5727 14.9872 15.3566 16.724C14.5993 17.3173 13.7411 17.99 12.8503 18.7064C12.6152 18.8957 12.313 19 12 19Z" fill="white" stroke="white" stroke-width="0.4"/>
</svg>
