<svg width="49" height="51" viewBox="0 0 49 51" fill="none" xmlns="http://www.w3.org/2000/svg">
<path fill-rule="evenodd" clip-rule="evenodd" d="M33.6498 32.1798L29.6148 29.849C29.2097 29.6152 28.9326 29.2166 28.8535 28.7546C28.7734 28.2926 28.9006 27.8231 29.2049 27.4671L32.4898 23.597C34.5742 21.1498 35.7219 18.0248 35.7219 14.7994V13.5403C35.7219 9.81226 34.17 6.21293 31.4627 3.6616C28.7159 1.07429 25.1191 -0.217948 21.3527 0.0300853C14.3005 0.490178 8.77289 6.61338 8.77289 13.972V14.8004C8.77289 18.0286 9.9225 21.1527 12.0069 23.598L15.2927 27.47C15.5943 27.825 15.7224 28.2936 15.6433 28.7575C15.5632 29.2176 15.2852 29.6171 14.88 29.8509L6.82608 34.5029C2.6149 36.9056 0 41.4176 0 46.2779V50.0533H1.88462V46.2788C1.88462 42.0973 4.13485 38.2149 7.76179 36.1445L15.8204 31.4906C16.7118 30.9756 17.3243 30.0961 17.4996 29.0765C17.6758 28.0588 17.3931 27.0241 16.725 26.2383L13.4382 22.3663C11.645 20.2609 10.6584 17.5742 10.6584 14.7985V13.9701C10.6584 7.60836 15.4077 2.31445 21.4743 1.91874C24.7233 1.71236 27.8113 2.81809 30.1718 5.04282C32.5369 7.26755 33.8373 10.2856 33.8373 13.5394V14.7985C33.8373 17.5742 32.8507 20.2609 31.0575 22.3673L27.7708 26.2393C27.1036 27.025 26.8209 28.0597 26.9962 29.0793C27.1724 30.0961 27.7839 30.9756 28.6754 31.4906L31.5362 33.1425C32.2015 32.7525 32.9073 32.4278 33.6498 32.1788V32.1798ZM40.5192 40.5864V32.0662H38.6346V40.5864H30.1538V42.4798H38.6346V51H40.5192V42.4798H49V40.5864H40.5192Z" fill="#B3B3B3"/>
</svg>
