<svg width="20" height="20" viewBox="0 0 20 20" fill="none" xmlns="http://www.w3.org/2000/svg">
<path d="M2.51518 2.51506C4.13705 0.893198 6.2934 0 8.58702 0C10.8806 0 13.037 0.893198 14.6588 2.51506C16.2806 4.13689 17.1739 6.29325 17.1739 8.58683C17.1739 10.6838 16.4269 12.6657 15.0594 14.2297L19.8282 18.9986C20.0573 19.2276 20.0573 19.599 19.8282 19.8281C19.7137 19.9426 19.5636 19.9999 19.4135 19.9999C19.2634 19.9999 19.1132 19.9426 18.9988 19.8281L14.2299 15.0592C12.6659 16.4267 10.684 17.1737 8.58702 17.1737C6.29336 17.1737 4.13708 16.2805 2.51522 14.6587C0.893392 13.0368 0.000195026 10.8805 0.000195026 8.58686C0.000195026 6.29325 0.893354 4.13689 2.51518 2.51506ZM3.34471 13.8292C6.23535 16.7198 10.9386 16.7198 13.8293 13.8292C16.7199 10.9386 16.7199 6.2352 13.8293 3.34459C12.3838 1.89913 10.4857 1.17663 8.58698 1.17663C6.68871 1.17663 4.78982 1.89948 3.34467 3.34459C0.454137 6.23516 0.454137 10.9385 3.34471 13.8292Z" fill="#222222"/>
</svg>
