<svg width="125" height="125" viewBox="0 0 125 125" fill="none" xmlns="http://www.w3.org/2000/svg">
<rect width="125" height="125" fill="url(#paint0_linear)"/>
<path d="M62.5 80C61.9163 80 61.3536 79.7971 60.915 79.4285C59.2587 78.0389 57.6618 76.733 56.253 75.581L56.2458 75.575C52.1152 72.1975 48.5483 69.2808 46.0665 66.4075C43.2922 63.1954 42 60.1499 42 56.8228C42 53.5903 43.1552 50.6081 45.2525 48.4252C47.3749 46.2165 50.2871 45 53.4537 45C55.8204 45 57.9878 45.7179 59.8956 47.1337C60.8584 47.8483 61.7311 48.7229 62.5 49.7431C63.2692 48.7229 64.1416 47.8483 65.1047 47.1337C67.0125 45.7179 69.18 45 71.5466 45C74.7129 45 77.6254 46.2165 79.7478 48.4252C81.8451 50.6081 83 53.5903 83 56.8228C83 60.1499 81.7081 63.1954 78.9338 66.4072C76.452 69.2808 72.8854 72.1972 68.7555 75.5744C67.3441 76.7282 65.7447 78.0362 64.0847 79.4291C63.6464 79.7971 63.0834 80 62.5 80Z" fill="white" stroke="white" stroke-width="0.4"/>
<defs>
<linearGradient id="paint0_linear" x1="0" y1="0" x2="117.187" y2="117.187" gradientUnits="userSpaceOnUse">
<stop stop-color="#3F12B8"/>
<stop offset="1" stop-color="#7B9287"/>
</linearGradient>
</defs>
</svg>
