<svg width="32" height="32" viewBox="0 0 32 32" fill="none" xmlns="http://www.w3.org/2000/svg">
<rect width="32" height="32" fill="url(#paint0_linear)"/>
<path d="M16 22C15.8007 22 15.6085 21.9304 15.4588 21.8041C14.8932 21.3276 14.3479 20.8799 13.8669 20.4849L13.8644 20.4829C12.454 19.3249 11.236 18.3248 10.3885 17.3397C9.44124 16.2384 9 15.1943 9 14.0535C9 12.9453 9.39445 11.9228 10.1106 11.1744C10.8353 10.4171 11.8298 10 12.911 10C13.7191 10 14.4592 10.2461 15.1107 10.7316C15.4395 10.9766 15.7375 11.2764 16 11.6262C16.2626 11.2764 16.5605 10.9766 16.8894 10.7316C17.5409 10.2461 18.281 10 19.0891 10C20.1702 10 21.1648 10.4171 21.8895 11.1744C22.6057 11.9228 23 12.9453 23 14.0535C23 15.1943 22.5589 16.2384 21.6116 17.3396C20.7641 18.3248 19.5462 19.3248 18.136 20.4827C17.6541 20.8782 17.108 21.3267 16.5411 21.8043C16.3915 21.9304 16.1992 22 16 22Z" fill="white" stroke="white" stroke-width="0.4"/>
<defs>
<linearGradient id="paint0_linear" x1="0" y1="0" x2="30" y2="30" gradientUnits="userSpaceOnUse">
<stop stop-color="#470DF4"/>
<stop offset="1" stop-color="#C2ECDA"/>
</linearGradient>
</defs>
</svg>
