<svg width="17" height="15" viewBox="0 0 17 15" fill="none" xmlns="http://www.w3.org/2000/svg">
<path d="M8.5 14C8.28645 14 8.08057 13.9246 7.92013 13.7877C7.31416 13.2716 6.72994 12.7865 6.2145 12.3587L6.21187 12.3564C4.70068 11.1019 3.39571 10.0186 2.48773 8.95137C1.47276 7.7583 1 6.62711 1 5.39134C1 4.19069 1.42263 3.08302 2.18996 2.27222C2.96644 1.45183 4.03188 1 5.19037 1C6.05623 1 6.84919 1.26666 7.54716 1.79252C7.89941 2.05795 8.2187 2.38281 8.5 2.76173C8.78141 2.38281 9.10059 2.05795 9.45295 1.79252C10.1509 1.26666 10.9439 1 11.8097 1C12.9681 1 14.0337 1.45183 14.8102 2.27222C15.5775 3.08302 16 4.19069 16 5.39134C16 6.62711 15.5274 7.7583 14.5124 8.95126C13.6044 10.0186 12.2996 11.1018 10.7886 12.3562C10.2722 12.7847 9.6871 13.2706 9.07976 13.788C8.91943 13.9246 8.71343 14 8.5 14V14ZM5.19037 1.85595C4.28022 1.85595 3.44411 2.20979 2.83586 2.85237C2.21857 3.50464 1.87856 4.4063 1.87856 5.39134C1.87856 6.43068 2.2751 7.3602 3.16419 8.40522C4.02353 9.41535 5.30172 10.4764 6.78167 11.7051L6.78442 11.7073C7.3018 12.1368 7.88831 12.6238 8.49874 13.1437C9.11283 12.6228 9.70026 12.135 10.2187 11.7048C11.6985 10.4762 12.9766 9.41535 13.8359 8.40522C14.7249 7.3602 15.1214 6.43068 15.1214 5.39134C15.1214 4.4063 14.7814 3.50464 14.1641 2.85237C13.556 2.20979 12.7198 1.85595 11.8097 1.85595C11.143 1.85595 10.5309 2.06241 9.99036 2.46954C9.50868 2.83252 9.17314 3.29138 8.97642 3.61244C8.87525 3.77754 8.69718 3.87609 8.5 3.87609C8.30282 3.87609 8.12475 3.77754 8.02358 3.61244C7.82697 3.29138 7.49143 2.83252 7.00964 2.46954C6.46913 2.06241 5.85699 1.85595 5.19037 1.85595V1.85595Z" fill="white" stroke="white" stroke-width="0.4"/>
</svg>
