<svg width="26" height="6" viewBox="0 0 26 6" fill="none" xmlns="http://www.w3.org/2000/svg">
<path d="M2.73919 5.47838C4.252 5.47838 5.47838 4.252 5.47838 2.73919C5.47838 1.22638 4.252 0 2.73919 0C1.22638 0 0 1.22638 0 2.73919C0 4.252 1.22638 5.47838 2.73919 5.47838Z" fill="white"/>
<path d="M12.6005 5.47838C14.1133 5.47838 15.3397 4.252 15.3397 2.73919C15.3397 1.22638 14.1133 0 12.6005 0C11.0877 0 9.86133 1.22638 9.86133 2.73919C9.86133 4.252 11.0877 5.47838 12.6005 5.47838Z" fill="white"/>
<path d="M22.4599 5.47838C23.9727 5.47838 25.1991 4.252 25.1991 2.73919C25.1991 1.22638 23.9727 0 22.4599 0C20.9471 0 19.7207 1.22638 19.7207 2.73919C19.7207 4.252 20.9471 5.47838 22.4599 5.47838Z" fill="white"/>
</svg>
