<svg width="16" height="18" viewBox="0 0 16 18" fill="none" xmlns="http://www.w3.org/2000/svg">
<path d="M4.5 9.9V6.1C4.5 6.04477 4.54477 6 4.6 6H6.97639C6.99192 6 7.00723 5.99639 7.02111 5.98944L8.85528 5.07236C8.92177 5.03912 9 5.08747 9 5.1618V10.8382C9 10.9125 8.92177 10.9609 8.85528 10.9276L7.02111 10.0106C7.00723 10.0036 6.99192 10 6.97639 10H4.6C4.54477 10 4.5 9.95523 4.5 9.9Z" fill="#B3B3B3" stroke="#B3B3B3"/>
<circle cx="8" cy="8" r="7.5" stroke="#B3B3B3"/>
<mask id="path-3-inside-1" fill="white">
<path d="M11.0109 4.71362C11.2134 4.49255 11.5594 4.47575 11.7572 4.70105C12.094 5.08467 12.3709 5.51845 12.5772 5.98775C12.8565 6.62309 13.0005 7.30962 13 8.00365C12.9995 8.69768 12.8545 9.38401 12.5743 10.0189C12.3673 10.4879 12.0898 10.9213 11.7524 11.3045C11.5543 11.5295 11.2083 11.5122 11.0061 11.2908V11.2908C10.8039 11.0695 10.8229 10.7282 11.0142 10.4973C11.2439 10.22 11.4349 9.91159 11.581 9.58055C11.8004 9.08348 11.9139 8.54619 11.9143 8.00287C11.9147 7.45954 11.8019 6.92209 11.5833 6.42471C11.4376 6.09345 11.2471 5.7848 11.0178 5.50715C10.8268 5.276 10.8084 4.93468 11.0109 4.71362V4.71362Z"/>
</mask>
<path d="M11.0109 4.71362C11.2134 4.49255 11.5594 4.47575 11.7572 4.70105C12.094 5.08467 12.3709 5.51845 12.5772 5.98775C12.8565 6.62309 13.0005 7.30962 13 8.00365C12.9995 8.69768 12.8545 9.38401 12.5743 10.0189C12.3673 10.4879 12.0898 10.9213 11.7524 11.3045C11.5543 11.5295 11.2083 11.5122 11.0061 11.2908V11.2908C10.8039 11.0695 10.8229 10.7282 11.0142 10.4973C11.2439 10.22 11.4349 9.91159 11.581 9.58055C11.8004 9.08348 11.9139 8.54619 11.9143 8.00287C11.9147 7.45954 11.8019 6.92209 11.5833 6.42471C11.4376 6.09345 11.2471 5.7848 11.0178 5.50715C10.8268 5.276 10.8084 4.93468 11.0109 4.71362V4.71362Z" stroke="#B3B3B3" stroke-width="2" mask="url(#path-3-inside-1)"/>
<rect x="12.7266" width="2" height="4" transform="rotate(42.9741 12.7266 0)" fill="#282828"/>
<rect width="2" height="4" transform="matrix(-0.731662 0.681667 0.681667 0.731662 11.4634 13)" fill="#282828"/>
</svg>
