<svg width="43" height="43" viewBox="0 0 43 43" fill="none" xmlns="http://www.w3.org/2000/svg">
<path d="M0 21.5C0 9.60781 9.60781 0 21.5 0C33.3922 0 43 9.60781 43 21.5C43 33.3922 33.3922 43 21.5 43C9.60781 43 0 33.3922 0 21.5Z" fill="black" fill-opacity="0.2"/>
<path d="M27.8164 18.9467L25.868 25.0607C25.868 24.5904 24.5242 14.3779 24.5242 14.3779C21.4336 14.3779 19.8211 16.5951 18.9477 18.8795L16.5961 25.0607C16.5961 24.5904 16.2602 18.9467 16.2602 18.9467C15.9914 16.3936 13.9086 14.4451 11.3555 14.3779L13.9086 29.8311C17.1336 29.8311 18.8805 27.6139 19.7539 25.3295L21.7695 20.0889C21.7695 20.2904 23.1133 29.8311 23.1133 29.8311C25.8008 29.8311 28.2195 28.0842 29.0258 25.4639L33.5945 14.4451C30.3695 14.4451 28.6898 16.5951 27.8164 18.9467Z" fill="white"/>
</svg>
