<svg width="15" height="12" viewBox="0 0 15 12" fill="none" xmlns="http://www.w3.org/2000/svg">
<path d="M5.44092 4.29648L4.73786 5.14828L4.18915 4.48343C3.25743 3.35468 1.69135 2.68076 -1.12886e-07 2.68076V1.74252C2.08685 1.74252 4.019 2.57391 5.16851 3.96661L5.44092 4.29648ZM12.2339 12L15 9.78836L12.2339 7.57672L11.4041 8.2402L12.7536 9.31924H12.2878C10.5964 9.31924 9.0303 8.64532 8.09869 7.51657L7.54987 6.85172L6.84692 7.70343L7.11921 8.03339C8.26873 9.42599 10.2009 10.2575 12.2878 10.2575H12.7536L11.4041 11.3365L12.2339 12ZM5.16863 8.03339L8.09869 4.48343C9.0303 3.35468 10.5964 2.68076 12.2878 2.68076H12.7536L11.4041 3.7598L12.2339 4.42328L15 2.21164L12.2339 0L11.4041 0.663483L12.7536 1.74252H12.2878C10.2009 1.74252 8.26873 2.57391 7.11921 3.96661L4.18915 7.51657C3.25743 8.64532 1.69135 9.31924 -1.12886e-07 9.31924V10.2575C2.08685 10.2575 4.01911 9.42609 5.16863 8.03339V8.03339Z" fill="#1ED760"/>
</svg>
