<svg width="14" height="13" viewBox="0 0 14 13" fill="none" xmlns="http://www.w3.org/2000/svg">
<path d="M0.815206 10.1906L2.96766 8.77248C3.40216 8.48622 3.94738 8.84449 3.94738 9.41794V10.2787H9.86995C11.609 10.2787 13.0238 8.6643 13.0238 6.67984C13.0238 6.37206 13.2424 6.12256 13.5121 6.12256C13.7818 6.12256 14.0005 6.37209 14.0005 6.67984C14.0005 9.27887 12.1475 11.3933 9.86992 11.3933H3.94741V12.2541C3.94741 12.8266 3.4029 13.1863 2.96769 12.8996L0.815232 11.4815C0.380732 11.1953 0.379995 10.4773 0.815206 10.1906Z" fill="white"/>
<path d="M4.13035 1.60704H10.0529V0.746215C10.0529 0.173733 10.5974 -0.186007 11.0326 0.100749L13.1851 1.51883C13.6196 1.80506 13.6203 2.52301 13.1851 2.80977L11.0326 4.22788C10.5981 4.51414 10.0529 4.15583 10.0529 3.58241V2.72162H4.13035C2.39131 2.72162 0.976543 4.33603 0.976543 6.32048C0.976543 6.62827 0.75787 6.87777 0.488174 6.87777C0.218451 6.87777 -0.000193574 6.62824 -0.000193574 6.32048C-0.000220918 3.72149 1.85276 1.60704 4.13035 1.60704Z" fill="white"/>
</svg>
