<svg width="17" height="15" viewBox="0 0 17 15" fill="none" xmlns="http://www.w3.org/2000/svg">
<path d="M8.5 14C8.28645 14 8.08057 13.9246 7.92013 13.7877C7.31416 13.2716 6.72994 12.7865 6.2145 12.3587L6.21187 12.3564C4.70068 11.1019 3.39571 10.0186 2.48773 8.95137C1.47276 7.7583 1 6.62711 1 5.39134C1 4.19069 1.42263 3.08302 2.18996 2.27222C2.96644 1.45183 4.03188 1 5.19037 1C6.05623 1 6.84919 1.26666 7.54716 1.79252C7.89941 2.05795 8.2187 2.38281 8.5 2.76173C8.78141 2.38281 9.10059 2.05795 9.45295 1.79252C10.1509 1.26666 10.9439 1 11.8097 1C12.9681 1 14.0337 1.45183 14.8102 2.27222C15.5775 3.08302 16 4.19069 16 5.39134C16 6.62711 15.5274 7.7583 14.5124 8.95126C13.6044 10.0186 12.2996 11.1018 10.7886 12.3562C10.2722 12.7847 9.6871 13.2706 9.07976 13.788C8.91943 13.9246 8.71343 14 8.5 14Z" fill="#1ED760" stroke="#1ED760" stroke-width="0.4"/>
</svg>
