<svg width="180" height="78" viewBox="0 0 180 78" fill="none" xmlns="http://www.w3.org/2000/svg">
<rect x="34" y="1" width="102" height="66" rx="2" stroke="white" stroke-width="2"/>
<rect x="0.5" y="75.5" width="60" height="1" stroke="white"/>
<rect x="71.5" y="75.5" width="28" height="1" stroke="white"/>
<rect x="5" y="37" width="51" height="33" rx="2" fill="#282828" stroke="white" stroke-width="2"/>
<rect x="167" y="58" width="12" height="19" rx="2" stroke="white" stroke-width="2"/>
<circle cx="173" cy="73" r="0.5" stroke="white"/>
<rect x="132" y="31" width="31" height="46" rx="2" fill="#282828" stroke="white" stroke-width="2"/>
<circle cx="147.5" cy="60.5" r="8.5" stroke="white" stroke-width="2"/>
<circle cx="147.5" cy="41.5" r="1" stroke="white"/>
<rect x="108" y="66" width="2" height="2" fill="#282828"/>
<rect x="131" y="56" width="2" height="4" fill="#282828"/>
<rect x="132" y="74" width="5" height="4" fill="#282828"/>
<path d="M110 74C109 73 111.5 59 113.5 59H131C133 59 136 73 135 74C134 75 133.5 76.5 132 76.5C130.5 76.5 128 71 126.5 71H119C117.5 71 115 76.5 113.5 76.5C112 76.5 111 75 110 74Z" fill="#282828" stroke="white" stroke-width="2"/>
<circle cx="128" cy="65" r="1.5" stroke="white"/>
<rect x="115.25" y="64.75" width="0.5" height="4.5" rx="0.25" transform="rotate(-90 115.25 64.75)" stroke="white" stroke-width="0.5"/>
<rect x="117.25" y="62.25" width="0.5" height="4.5" rx="0.25" stroke="white" stroke-width="0.5"/>
<rect x="33" y="34" width="2" height="2" fill="#282828"/>
<rect x="57" y="66" width="2" height="2" fill="#282828"/>
<rect x="135" y="28" width="2" height="2" fill="#282828"/>
</svg>
