<svg width="16" height="4" viewBox="0 0 16 4" fill="none" xmlns="http://www.w3.org/2000/svg">
<path d="M1.73919 3.47838C2.69972 3.47838 3.47838 2.69972 3.47838 1.73919C3.47838 0.778661 2.69972 0 1.73919 0C0.778661 0 0 0.778661 0 1.73919C0 2.69972 0.778661 3.47838 1.73919 3.47838Z" fill="white"/>
<path d="M8.00091 3.47838C8.96143 3.47838 9.7401 2.69972 9.7401 1.73919C9.7401 0.778661 8.96143 0 8.00091 0C7.04038 0 6.26172 0.778661 6.26172 1.73919C6.26172 2.69972 7.04038 3.47838 8.00091 3.47838Z" fill="white"/>
<path d="M14.2607 3.47838C15.2212 3.47838 15.9999 2.69972 15.9999 1.73919C15.9999 0.778661 15.2212 0 14.2607 0C13.3001 0 12.5215 0.778661 12.5215 1.73919C12.5215 2.69972 13.3001 3.47838 14.2607 3.47838Z" fill="white"/>
</svg>
