<svg width="17" height="17" viewBox="0 0 17 17" fill="none" xmlns="http://www.w3.org/2000/svg">
<path d="M11.7667 5.8597C11.8993 7.05203 11.3675 8.21414 10.3791 8.8926C9.63915 9.40063 9.19727 10.222 9.19727 11.0898V11.7539H7.86914V11.0898C7.86914 9.78416 8.52646 8.55344 9.62748 7.79768C10.2111 7.39703 10.525 6.71066 10.4468 6.00639C10.3494 5.13105 9.63824 4.42548 8.75564 4.3286C8.18859 4.26634 7.64813 4.43664 7.23387 4.80797C6.82986 5.16996 6.60742 5.66762 6.60742 6.20898V6.87305H5.2793V6.20898C5.2793 5.29849 5.66866 4.4273 6.34737 3.81901C7.03647 3.20138 7.96706 2.90605 8.90051 3.00851C10.396 3.17258 11.6014 4.37166 11.7667 5.8597V5.8597ZM7.86914 14.0117H9.19727V12.6836H7.86914V14.0117ZM17 8.5C17 10.7704 16.1158 12.905 14.5104 14.5104C12.905 16.1158 10.7704 17 8.5 17C6.22961 17 4.09501 16.1158 2.48959 14.5104C0.884163 12.905 0 10.7704 0 8.5C0 6.22961 0.884163 4.09501 2.48959 2.48959C4.09501 0.884163 6.22961 0 8.5 0C10.7704 0 12.905 0.884163 14.5104 2.48959C16.1158 4.09501 17 6.22961 17 8.5ZM15.6719 8.5C15.6719 4.54546 12.4545 1.32812 8.5 1.32812C4.54546 1.32812 1.32812 4.54546 1.32812 8.5C1.32812 12.4545 4.54546 15.6719 8.5 15.6719C12.4545 15.6719 15.6719 12.4545 15.6719 8.5Z" fill="white"/>
</svg>
