<svg width="18" height="18" viewBox="0 0 18 18" fill="none" xmlns="http://www.w3.org/2000/svg">
<path d="M0.815206 15.1906L2.96766 13.7725C3.40216 13.4862 3.94738 13.8445 3.94738 14.4179V15.2787H9.86995C11.609 15.2787 13.0238 13.6643 13.0238 11.6798C13.0238 11.3721 13.2424 11.1226 13.5121 11.1226C13.7818 11.1226 14.0005 11.3721 14.0005 11.6798C14.0005 14.2789 12.1475 16.3933 9.86992 16.3933H3.94741V17.2541C3.94741 17.8266 3.4029 18.1863 2.96769 17.8996L0.815232 16.4815C0.380732 16.1953 0.379995 15.4773 0.815206 15.1906Z" fill="#1ED760"/>
<path d="M4.13035 6.60704H10.0529V5.74621C10.0529 5.17373 10.5974 4.81399 11.0326 5.10075L13.1851 6.51883C13.6196 6.80506 13.6203 7.52301 13.1851 7.80977L11.0326 9.22788C10.5981 9.51414 10.0529 9.15583 10.0529 8.58241V7.72162H4.13035C2.39131 7.72162 0.976543 9.33603 0.976543 11.3205C0.976543 11.6283 0.75787 11.8778 0.488174 11.8778C0.218451 11.8778 -0.000193574 11.6282 -0.000193574 11.3205C-0.000220918 8.72149 1.85276 6.60704 4.13035 6.60704Z" fill="#1ED760"/>
<circle cx="11" cy="7" r="5.75" fill="#1ED760" stroke="#282828" stroke-width="1.5"/>
<path d="M10.832 10V5.44727H10.0322V5.02344L11.5088 4.89697V10H10.832Z" fill="black"/>
</svg>
