<svg width="19" height="21" viewBox="0 0 19 21" fill="none" xmlns="http://www.w3.org/2000/svg">
<path fill-rule="evenodd" clip-rule="evenodd" d="M14.3929 14.619L18.7858 19.7738L18.0239 20.4286L13.6191 15.2738C12.1032 16.4246 10.3968 17 8.49999 17C7.34917 17 6.24798 16.7758 5.19642 16.3274C4.14486 15.879 3.24009 15.2758 2.48213 14.5178C1.72416 13.7599 1.12098 12.8551 0.672609 11.8035C0.224234 10.752 3.12533e-05 9.65076 3.26632e-09 8.49998C-3.12467e-05 7.3492 0.224172 6.24801 0.672609 5.19642C1.12105 4.14483 1.72422 3.24006 2.48213 2.48212C3.24003 1.72419 4.1448 1.12102 5.19642 0.672609C6.24805 0.224203 7.34924 0 8.49999 0C9.65074 0 10.7519 0.224203 11.8035 0.672609C12.8552 1.12102 13.7599 1.72419 14.5178 2.48212C15.2758 3.24006 15.8789 4.14483 16.3274 5.19642C16.7758 6.24801 17 7.3492 17 8.49998C17 9.68251 16.7698 10.8016 16.3095 11.8571C15.8492 12.9127 15.2103 13.8333 14.3928 14.619L14.3929 14.619ZM8.50008 15.9999C9.8572 15.9999 11.1112 15.6646 12.262 14.994C13.4128 14.3233 14.3235 13.4126 14.9941 12.2618C15.6648 11.111 16.0001 9.85705 16.0001 8.49989C16.0002 7.14273 15.6648 5.88876 14.9941 4.73798C14.3235 3.5872 13.4127 2.6765 12.262 2.00588C11.1112 1.33525 9.85727 0.999937 8.50008 0.999937C7.14289 0.999937 5.88892 1.33525 4.73817 2.00588C3.58742 2.6765 2.67672 3.5872 2.00606 4.73798C1.33541 5.88876 1.00009 7.14273 1.00013 8.49989C1.00016 9.85705 1.33547 11.111 2.00606 12.2618C2.67666 13.4126 3.58736 14.3233 4.73817 14.994C5.88898 15.6646 7.14295 15.9999 8.50008 15.9999Z" fill="white"/>
</svg>
